<svg xmlns="http://www.w3.org/2000/svg" viewBox="0 0 24 24" aria-hidden="true">
  <path
    fill="#25D366"
    d="M12 2.003a9.79 9.79 0 0 0-8.31 14.95L2 22l5.18-1.63A9.79 9.79 0 1 0 12 2.003Z"
  />
  <path
    fill="#fff"
    d="M17.56 14.48c-.3-.15-1.76-.87-2.04-.97-.27-.1-.47-.15-.66.15-.2.3-.77.97-.94 1.17-.17.2-.35.22-.65.07-.3-.15-1.27-.47-2.42-1.49-.9-.8-1.5-1.79-1.67-2.09-.17-.3-.02-.46.13-.6.13-.13.3-.35.45-.52.15-.17.2-.3.3-.5.1-.2.05-.37-.03-.52-.08-.15-.66-1.59-.9-2.17-.24-.58-.48-.5-.66-.5h-.56c-.2 0-.52.08-.8.37-.27.3-1.05 1.02-1.05 2.5s1.07 2.9 1.22 3.1c.15.2 2.09 3.19 5.05 4.47.7.3 1.25.48 1.68.61.7.22 1.35.19 1.85.11.57-.08 1.76-.72 2.01-1.41.25-.69.25-1.28.17-1.4-.08-.12-.27-.2-.57-.35Z"
  />
</svg>
